<svg id="Group_36" data-name="Group 36" xmlns="http://www.w3.org/2000/svg" xmlns:xlink="http://www.w3.org/1999/xlink" width="30.787" height="30.787" viewBox="0 0 30.787 30.787">
  <defs>
    <clipPath id="clip-path">
      <rect id="Rectangle_5" data-name="Rectangle 5" width="30.787" height="30.787" fill="#3b424b"/>
    </clipPath>
  </defs>
  <g id="Group_35" data-name="Group 35" clip-path="url(#clip-path)">
    <path id="Path_3219" data-name="Path 3219" d="M20.843,69.635l.039-.018.052-.024.056-.025a.475.475,0,0,1-.188-.043.263.263,0,0,1-.105-.112.322.322,0,0,1,.011-.329.849.849,0,0,1,.352-.3.922.922,0,0,1,.464-.132.314.314,0,0,1,.282.172.268.268,0,0,1,.036.164.441.441,0,0,1-.079.183l.061-.036.105-.061.584-.308.21.4-1.666.881Zm.448-.453q-.219.116-.167.213t.274-.028q.216-.114.169-.2t-.276.017" transform="translate(-14.757 -49.04)" fill="#3b424b"/>
    <path id="Path_3220" data-name="Path 3220" d="M23.783,73.511l.246.362a.534.534,0,0,1-.364.035.559.559,0,0,1-.292-.227.526.526,0,0,1-.1-.424.643.643,0,0,1,.278-.377.684.684,0,0,1,.472-.143.512.512,0,0,1,.383.225.489.489,0,0,1,.086.424.707.707,0,0,1-.3.391l-.065.044-.38-.535c-.1.076-.127.14-.09.193a.1.1,0,0,0,.127.032m.284-.19a.228.228,0,0,0,.045-.042.154.154,0,0,0,.027-.046.1.1,0,0,0,.007-.045.077.077,0,0,0-.014-.04.088.088,0,0,0-.079-.037.189.189,0,0,0-.106.04Z" transform="translate(-16.615 -51.96)" fill="#3b424b"/>
    <path id="Path_3221" data-name="Path 3221" d="M25.68,76.639l.357-.1a.333.333,0,0,0,.057.251q.059.064.1.023t-.007-.151a.385.385,0,0,1,.05-.471.367.367,0,0,1,.313-.094.534.534,0,0,1,.324.184.761.761,0,0,1,.169.332l-.345.106a.312.312,0,0,0-.045-.208c-.031-.035-.061-.039-.089-.014s-.029.086,0,.177a.56.56,0,0,1,.049.262.3.3,0,0,1-.108.184.386.386,0,0,1-.316.1.506.506,0,0,1-.32-.178.816.816,0,0,1-.117-.167.645.645,0,0,1-.041-.1c-.013-.039-.026-.083-.04-.134" transform="translate(-18.345 -54.354)" fill="#3b424b"/>
    <path id="Path_3222" data-name="Path 3222" d="M28.512,78.321l-.329-.305.82-.884.329.3Zm1.1-1.133a.25.25,0,0,1-.181.082.259.259,0,0,1-.187-.069.254.254,0,0,1-.083-.183.26.26,0,0,1,.07-.187.251.251,0,0,1,.181-.083.256.256,0,0,1,.187.069.251.251,0,0,1,.085.183.254.254,0,0,1-.071.188" transform="translate(-20.133 -54.826)" fill="#3b424b"/>
    <path id="Path_3223" data-name="Path 3223" d="M31.3,80.608l-.747.99a.707.707,0,0,1-.179.173.392.392,0,0,1-.2.054.6.6,0,0,1-.37-.136.591.591,0,0,1-.238-.312.492.492,0,0,1,.069-.362L30,81.29a.087.087,0,0,0,.016.135.085.085,0,0,0,.088.017.266.266,0,0,0,.1-.09l.115-.153A.346.346,0,0,1,30,81.155a.324.324,0,0,1-.123-.307.833.833,0,0,1,.185-.422.863.863,0,0,1,.358-.3.322.322,0,0,1,.329.029.239.239,0,0,1,.086.115.551.551,0,0,1,.019.195l.088-.132Zm-.708.217q.157-.208.081-.266c-.058-.043-.138,0-.24.138s-.13.23-.074.272.131-.008.233-.144" transform="translate(-21.112 -57.219)" fill="#3b424b"/>
    <path id="Path_3224" data-name="Path 3224" d="M35.036,83.8l-.39-.22.314-.556A.288.288,0,0,0,35,82.913a.058.058,0,0,0-.033-.056q-.082-.046-.169.108l-.3.529-.389-.22.593-1.05.39.22-.043.071-.038.06-.042.065a.347.347,0,0,1,.4-.067.266.266,0,0,1,.143.205.491.491,0,0,1-.077.3Z" transform="translate(-24.369 -58.739)" fill="#3b424b"/>
    <path id="Path_3225" data-name="Path 3225" d="M42.716,86.764l-.426-.123.113-.72-.334.656-.421-.122.047-1.242.422.122-.042.391c-.006.049-.013.1-.021.158s-.018.116-.03.181c.024-.064.05-.124.077-.181s.054-.112.083-.164l.173-.316.367.106-.046.391q-.009.075-.023.159t-.031.177c.035-.079.068-.151.1-.215s.061-.123.089-.176l.145-.269.43.124Z" transform="translate(-29.753 -60.874)" fill="#3b424b"/>
    <path id="Path_3226" data-name="Path 3226" d="M47.84,86.607l-.443-.069.185-1.192.444.069Zm.28-1.555a.25.25,0,0,1-.1.169.258.258,0,0,1-.194.047.254.254,0,0,1-.171-.1.26.26,0,0,1-.046-.195.249.249,0,0,1,.1-.171.257.257,0,0,1,.193-.047.25.25,0,0,1,.173.1.256.256,0,0,1,.047.2" transform="translate(-33.859 -60.542)" fill="#3b424b"/>
    <path id="Path_3227" data-name="Path 3227" d="M50.444,87.542,50,87.507l.067-.843-.127-.01.028-.359.127.01.028-.354.447.035-.028.354.148.012-.029.359L50.51,86.7Z" transform="translate(-35.673 -61.401)" fill="#3b424b"/>
    <path id="Path_3228" data-name="Path 3228" d="M54.09,86.839l-.447.014-.019-.638A.284.284,0,0,0,53.6,86.1a.058.058,0,0,0-.057-.031c-.063,0-.092.062-.088.18l.018.608-.447.013-.057-1.883.447-.013.021.674c0,.036,0,.067,0,.091s0,.043,0,.056,0,.026,0,.04,0,.03,0,.047q.1-.258.309-.265a.265.265,0,0,1,.229.1.492.492,0,0,1,.09.3Z" transform="translate(-37.842 -60.703)" fill="#3b424b"/>
    <path id="Path_3229" data-name="Path 3229" d="M60.727,87.114l.428-.092a.533.533,0,0,1-.1.351.556.556,0,0,1-.32.186A.525.525,0,0,1,60.3,87.5a.642.642,0,0,1-.245-.4.686.686,0,0,1,.045-.491.514.514,0,0,1,.353-.271.491.491,0,0,1,.425.079.708.708,0,0,1,.251.421l.016.078-.638.152q.05.178.145.156a.1.1,0,0,0,.077-.105m-.069-.335a.222.222,0,0,0-.022-.058.147.147,0,0,0-.032-.042.112.112,0,0,0-.039-.023.081.081,0,0,0-.043,0,.088.088,0,0,0-.064.059.192.192,0,0,0,0,.114Z" transform="translate(-42.883 -61.663)" fill="#3b424b"/>
    <path id="Path_3230" data-name="Path 3230" d="M65.9,84.944l-.412.174-.265-.629q-.045-.106-.107-.079c-.063.026-.069.1-.021.212l.237.562-.412.174-.258-.614c-.032-.075-.071-.1-.118-.084a.081.081,0,0,0-.055.069.331.331,0,0,0,.036.144l.233.553-.412.174-.468-1.112.412-.174.024.057a1.329,1.329,0,0,1,.047.13.354.354,0,0,1,.2-.33.341.341,0,0,1,.391.107.316.316,0,0,1,.179-.346.292.292,0,0,1,.271.011.479.479,0,0,1,.179.238Z" transform="translate(-45.631 -59.939)" fill="#3b424b"/>
    <path id="Path_3231" data-name="Path 3231" d="M71.152,83.381l-.378.24-.935-1.472.378-.24.083.15a.585.585,0,0,1,0-.107.291.291,0,0,1,.02-.085.244.244,0,0,1,.043-.068.334.334,0,0,1,.067-.055.325.325,0,0,1,.332,0,.849.849,0,0,1,.336.327.868.868,0,0,1,.157.442.313.313,0,0,1-.146.292.343.343,0,0,1-.341-.007c.023.03.043.056.058.079s.036.051.057.084ZM70.7,82.3a.49.49,0,0,0-.121-.14.085.085,0,0,0-.1-.013q-.088.055.048.269t.223.165c.028-.018.038-.051.03-.1A.517.517,0,0,0,70.7,82.3" transform="translate(-49.892 -58.362)" fill="#3b424b"/>
    <path id="Path_3232" data-name="Path 3232" d="M75.478,79.377l-.343.289c-.023-.033-.045-.065-.067-.094l-.052-.072a.349.349,0,0,1-.091.375.3.3,0,0,1-.315.043.93.93,0,0,1-.375-.294.859.859,0,0,1-.214-.412.311.311,0,0,1,.1-.306.329.329,0,0,1,.361-.021l-.028-.028-.019-.02-.049-.051-.037-.039.349-.294Zm-.745-.181a1.038,1.038,0,0,0-.077-.084.319.319,0,0,0-.061-.048.092.092,0,0,0-.05-.014.075.075,0,0,0-.042.018q-.087.073.108.3.139.166.217.1t-.095-.278" transform="translate(-52.874 -56.045)" fill="#3b424b"/>
    <path id="Path_3233" data-name="Path 3233" d="M77.536,76.922l-.31.324-.61-.586-.088.092-.26-.249.088-.092-.256-.246.31-.324.256.245.1-.107.26.249-.1.107Z" transform="translate(-54.363 -54.179)" fill="#3b424b"/>
    <path id="Path_3234" data-name="Path 3234" d="M79.052,73.929l-.272.355-.507-.388a.279.279,0,0,0-.1-.057.057.057,0,0,0-.06.025q-.057.075.084.183l.483.37-.272.355-1.5-1.146.272-.355.535.41.072.056.043.035.03.027.035.032a.347.347,0,0,1-.01-.407.264.264,0,0,1,.223-.113.491.491,0,0,1,.289.118Z" transform="translate(-54.943 -52.343)" fill="#3b424b"/>
    <path id="Path_3235" data-name="Path 3235" d="M83,70.58l-.232.4-.382-.448-1.179-.271.226-.388.342.1q.071.021.151.051t.17.071l-.088-.069c-.111-.089-.192-.157-.241-.206l-.192-.189.225-.387Z" transform="translate(-58.011 -49.464)" fill="#3b424b"/>
    <path id="Path_3236" data-name="Path 3236" d="M65.215,36.925a1.6,1.6,0,1,1,1.6,1.64,1.573,1.573,0,0,1-1.6-1.64" transform="translate(-46.588 -25.207)" fill="#3b424b"/>
    <path id="Path_3237" data-name="Path 3237" d="M31.4,36.925a1.6,1.6,0,1,1,1.6,1.64,1.573,1.573,0,0,1-1.6-1.64" transform="translate(-22.429 -25.207)" fill="#3b424b"/>
    <path id="Path_3238" data-name="Path 3238" d="M15.393,0A15.394,15.394,0,1,0,30.787,15.393,15.393,15.393,0,0,0,15.393,0m0,28.848A13.455,13.455,0,1,1,28.848,15.393,13.455,13.455,0,0,1,15.393,28.848" transform="translate(0 0)" fill="#3b424b"/>
  </g>
</svg>
