<svg xmlns="http://www.w3.org/2000/svg" xmlns:xlink="http://www.w3.org/1999/xlink" width="117.673" height="21" viewBox="0 0 117.673 21">
  <defs>
    <clipPath id="clip-path">
      <rect id="Rectangle_5" data-name="Rectangle 5" width="18.132" height="18.132" fill="#3b424b"/>
    </clipPath>
  </defs>
  <g id="Group_73" data-name="Group 73" transform="translate(-132.327 -48)">
    <text id="Title_TAG:H6_" data-name="Title [TAG:H6]" transform="translate(155 65)" fill="#3b424b" font-size="16" font-family="Futura-Bold, Futura" font-weight="700"><tspan x="0" y="0">Katie Zhao</tspan></text>
    <g id="Group_36" data-name="Group 36" transform="translate(132.327 49.434)">
      <g id="Group_35" data-name="Group 35" clip-path="url(#clip-path)">
        <path id="Path_3219" data-name="Path 3219" d="M20.767,69.23l.023-.011.031-.014.033-.015a.28.28,0,0,1-.111-.026.155.155,0,0,1-.062-.066.19.19,0,0,1,.006-.194.5.5,0,0,1,.207-.178.543.543,0,0,1,.273-.078.185.185,0,0,1,.166.1.158.158,0,0,1,.021.1.26.26,0,0,1-.046.108l.036-.021.062-.036.344-.182.123.233-.981.519Zm.264-.267q-.129.068-.1.126t.162-.016q.127-.067.1-.119t-.163.01" transform="translate(-17.182 -57.1)" fill="#3b424b"/>
        <path id="Path_3220" data-name="Path 3220" d="M23.567,73.192l.145.213a.314.314,0,0,1-.215.021.329.329,0,0,1-.172-.134.31.31,0,0,1-.062-.25.379.379,0,0,1,.164-.222.4.4,0,0,1,.278-.084.3.3,0,0,1,.226.133.288.288,0,0,1,.051.249.417.417,0,0,1-.174.23l-.039.026-.224-.315c-.058.045-.075.082-.053.114a.058.058,0,0,0,.075.019m.168-.112a.135.135,0,0,0,.027-.025.091.091,0,0,0,.016-.027.061.061,0,0,0,0-.027.045.045,0,0,0-.008-.024.052.052,0,0,0-.047-.022.111.111,0,0,0-.063.024Z" transform="translate(-19.346 -60.499)" fill="#3b424b"/>
        <path id="Path_3221" data-name="Path 3221" d="M25.68,76.412l.21-.061a.2.2,0,0,0,.034.148q.035.038.062.013t0-.089a.226.226,0,0,1,.029-.278.216.216,0,0,1,.184-.055.315.315,0,0,1,.191.108.448.448,0,0,1,.1.2l-.2.063a.184.184,0,0,0-.027-.122c-.018-.021-.036-.023-.053-.008s-.017.051,0,.1a.33.33,0,0,1,.029.154.176.176,0,0,1-.063.108.227.227,0,0,1-.186.061.3.3,0,0,1-.189-.1.48.48,0,0,1-.069-.1.38.38,0,0,1-.024-.06c-.008-.023-.015-.049-.023-.079" transform="translate(-21.36 -63.288)" fill="#3b424b"/>
        <path id="Path_3222" data-name="Path 3222" d="M28.377,77.674l-.194-.18.483-.521.194.179Zm.649-.667a.147.147,0,0,1-.106.048.153.153,0,0,1-.11-.041.149.149,0,0,1-.049-.107.153.153,0,0,1,.041-.11.148.148,0,0,1,.106-.049.151.151,0,0,1,.11.041.148.148,0,0,1,.05.108.149.149,0,0,1-.042.111" transform="translate(-23.442 -63.836)" fill="#3b424b"/>
        <path id="Path_3223" data-name="Path 3223" d="M30.582,80.4l-.44.583a.416.416,0,0,1-.105.1.231.231,0,0,1-.118.032.352.352,0,0,1-.218-.08.348.348,0,0,1-.14-.184.29.29,0,0,1,.041-.213l.215.162a.051.051,0,0,0,.009.079.05.05,0,0,0,.052.01.157.157,0,0,0,.058-.053l.068-.09a.2.2,0,0,1-.188-.026.191.191,0,0,1-.073-.181.491.491,0,0,1,.109-.249.509.509,0,0,1,.211-.175.19.19,0,0,1,.194.017.141.141,0,0,1,.051.068.325.325,0,0,1,.011.115l.052-.078Zm-.417.128q.093-.123.048-.157t-.141.081q-.093.123-.044.16t.137-.085" transform="translate(-24.582 -66.623)" fill="#3b424b"/>
        <path id="Path_3224" data-name="Path 3224" d="M34.656,83.151l-.229-.13.185-.327a.169.169,0,0,0,.025-.064.034.034,0,0,0-.02-.033q-.048-.027-.1.064l-.176.312-.229-.13.349-.619.229.13-.025.042-.022.035-.025.038a.2.2,0,0,1,.237-.039.157.157,0,0,1,.084.121.289.289,0,0,1-.046.178Z" transform="translate(-28.374 -68.393)" fill="#3b424b"/>
        <path id="Path_3225" data-name="Path 3225" d="M42.278,86.126l-.251-.073.066-.424-.2.386-.248-.072.027-.732.249.072-.025.23c0,.029-.008.06-.012.093s-.011.068-.017.106c.014-.038.03-.073.045-.106s.032-.066.049-.1l.1-.186.216.062-.027.23q-.005.044-.013.094t-.019.1c.021-.046.04-.089.058-.127s.036-.072.053-.1l.085-.158.253.073Z" transform="translate(-34.643 -70.878)" fill="#3b424b"/>
        <path id="Path_3226" data-name="Path 3226" d="M47.658,85.843,47.4,85.8l.109-.7.261.04Zm.165-.916a.147.147,0,0,1-.061.1.152.152,0,0,1-.114.027.15.15,0,0,1-.1-.061.153.153,0,0,1-.027-.115.147.147,0,0,1,.061-.1.151.151,0,0,1,.114-.027.147.147,0,0,1,.1.062.151.151,0,0,1,.027.115" transform="translate(-39.424 -70.492)" fill="#3b424b"/>
        <path id="Path_3227" data-name="Path 3227" d="M50.235,86.888l-.263-.021.039-.5-.075-.006.017-.212.075.006.016-.208.263.021-.016.208.087.007-.017.212-.087-.007Z" transform="translate(-41.536 -71.492)" fill="#3b424b"/>
        <path id="Path_3228" data-name="Path 3228" d="M53.631,86.072l-.263.008-.011-.376a.167.167,0,0,0-.011-.067.034.034,0,0,0-.034-.018c-.037,0-.054.036-.052.106l.011.358-.263.008-.033-1.109.263-.008.012.4c0,.021,0,.039,0,.054s0,.026,0,.033,0,.015,0,.024,0,.018,0,.028q.059-.152.182-.156a.156.156,0,0,1,.135.06.29.29,0,0,1,.053.176Z" transform="translate(-44.062 -70.679)" fill="#3b424b"/>
        <path id="Path_3229" data-name="Path 3229" d="M60.44,86.787l.252-.054a.314.314,0,0,1-.061.207.327.327,0,0,1-.188.109.309.309,0,0,1-.255-.037.378.378,0,0,1-.144-.235.4.4,0,0,1,.026-.289.3.3,0,0,1,.208-.16.289.289,0,0,1,.25.047.417.417,0,0,1,.148.248l.009.046-.376.089q.03.1.085.092a.058.058,0,0,0,.045-.062m-.041-.2a.131.131,0,0,0-.013-.034.087.087,0,0,0-.019-.025.066.066,0,0,0-.023-.014.048.048,0,0,0-.025,0,.052.052,0,0,0-.038.035.113.113,0,0,0,0,.067Z" transform="translate(-49.93 -71.797)" fill="#3b424b"/>
        <path id="Path_3230" data-name="Path 3230" d="M65.067,84.517l-.243.1-.156-.371q-.026-.062-.063-.047c-.037.015-.041.057-.012.125l.14.331-.243.1-.152-.362c-.019-.044-.042-.061-.069-.049a.048.048,0,0,0-.032.04.2.2,0,0,0,.021.085l.137.326-.243.1-.276-.655.243-.1.014.034a.782.782,0,0,1,.028.077.209.209,0,0,1,.117-.194.2.2,0,0,1,.23.063.186.186,0,0,1,.105-.2.172.172,0,0,1,.159.006.282.282,0,0,1,.105.14Z" transform="translate(-53.13 -69.79)" fill="#3b424b"/>
        <path id="Path_3231" data-name="Path 3231" d="M70.613,82.689l-.223.141-.55-.867.222-.141.049.088a.345.345,0,0,1,0-.063.171.171,0,0,1,.012-.05.144.144,0,0,1,.025-.04.2.2,0,0,1,.039-.032.192.192,0,0,1,.2,0,.5.5,0,0,1,.2.193.511.511,0,0,1,.093.26.184.184,0,0,1-.086.172.2.2,0,0,1-.2,0c.014.018.025.033.034.047s.021.03.034.049Zm-.267-.635a.289.289,0,0,0-.071-.083.05.05,0,0,0-.059-.008q-.052.033.028.158t.132.1c.017-.01.023-.03.017-.059a.3.3,0,0,0-.047-.106" transform="translate(-58.091 -67.953)" fill="#3b424b"/>
        <path id="Path_3232" data-name="Path 3232" d="M74.877,79l-.2.17-.039-.055L74.6,79.07a.205.205,0,0,1-.054.221.177.177,0,0,1-.186.026.548.548,0,0,1-.221-.173.506.506,0,0,1-.126-.242.183.183,0,0,1,.061-.181.194.194,0,0,1,.213-.012l-.016-.016-.011-.012-.029-.03-.022-.023.206-.173Zm-.439-.107a.609.609,0,0,0-.046-.049.188.188,0,0,0-.036-.028.054.054,0,0,0-.029-.008.044.044,0,0,0-.025.011q-.051.043.063.179.082.1.128.059t-.056-.164" transform="translate(-61.564 -65.256)" fill="#3b424b"/>
        <path id="Path_3233" data-name="Path 3233" d="M76.945,76.478l-.183.191-.359-.345-.052.054-.153-.147.052-.054-.151-.145.183-.191.151.145.061-.063.153.147-.061.063Z" transform="translate(-63.297 -63.083)" fill="#3b424b"/>
        <path id="Path_3234" data-name="Path 3234" d="M78.172,73.659l-.16.209-.3-.228a.164.164,0,0,0-.06-.033.034.034,0,0,0-.035.014q-.034.044.049.107l.284.218-.16.209-.881-.675.16-.209.315.241.043.033.025.021.018.016.02.019a.2.2,0,0,1-.006-.24.155.155,0,0,1,.131-.066.289.289,0,0,1,.17.07Z" transform="translate(-63.973 -60.945)" fill="#3b424b"/>
        <path id="Path_3235" data-name="Path 3235" d="M82.262,70.03l-.136.235L81.9,70l-.695-.16.133-.229.2.059q.042.012.089.03t.1.042l-.052-.041c-.065-.052-.113-.093-.142-.121l-.113-.111.132-.228Z" transform="translate(-67.545 -57.593)" fill="#3b424b"/>
        <path id="Path_3236" data-name="Path 3236" d="M65.215,36.251a.94.94,0,1,1,.94.966.926.926,0,0,1-.94-.966" transform="translate(-54.244 -29.349)" fill="#3b424b"/>
        <path id="Path_3237" data-name="Path 3237" d="M31.4,36.251a.94.94,0,1,1,.94.966.926.926,0,0,1-.94-.966" transform="translate(-26.115 -29.349)" fill="#3b424b"/>
        <path id="Path_3238" data-name="Path 3238" d="M9.066,0a9.066,9.066,0,1,0,9.066,9.066A9.066,9.066,0,0,0,9.066,0m0,16.99A7.924,7.924,0,1,1,16.99,9.066,7.924,7.924,0,0,1,9.066,16.99" transform="translate(0 0)" fill="#3b424b"/>
      </g>
    </g>
  </g>
</svg>
