<?xml version="1.0" encoding="utf-8"?>
<!-- Generator: Adobe Illustrator 26.0.3, SVG Export Plug-In . SVG Version: 6.00 Build 0)  -->
<svg version="1.1" id="Layer_1" xmlns="http://www.w3.org/2000/svg" xmlns:xlink="http://www.w3.org/1999/xlink" x="0px" y="0px"
	 viewBox="0 0 177.5 308.6" style="enable-background:new 0 0 177.5 308.6;" xml:space="preserve">
<style type="text/css">
	.st0{display:none;}
	.st1{display:inline;fill:#AAABB0;}
	.st2{fill:url(#SVGID_1_);}
	.st3{fill:url(#SVGID_00000105388089298616857210000017740052028755967656_);}
	.st4{fill:url(#SVGID_00000165210703429589402450000000063303050991083906_);}
	.st5{fill:url(#SVGID_00000160893570101849922560000013804152157937022357_);}
	.st6{fill:url(#SVGID_00000052806261680802640560000010818056053879160728_);}
	.st7{fill:#AAABB0;}
	.st8{fill:url(#SVGID_00000067223429333219840280000018386051383544337035_);}
</style>
<g class="st0">
	<path class="st1" d="M72,179.5l-1-1.2l3.3-2.7l1,1.2L72,179.5z M76.3,176.1c-0.2,0.2-0.4,0.2-0.7,0.2c-0.3,0-0.5-0.1-0.6-0.3
		c-0.2-0.2-0.2-0.4-0.2-0.7c0-0.3,0.1-0.5,0.3-0.6c0.2-0.2,0.4-0.2,0.7-0.2c0.3,0,0.5,0.1,0.6,0.3c0.2,0.2,0.2,0.4,0.2,0.7
		C76.7,175.8,76.5,176,76.3,176.1z"/>
	<path class="st1" d="M75.3,183l-1.1-1.1l1.6-1.6c0.1-0.1,0.2-0.2,0.2-0.3c0-0.1,0-0.2-0.1-0.2c-0.2-0.2-0.4-0.1-0.7,0.2l-1.5,1.5
		l-1.1-1.1l3-3l1.1,1.1c-0.1,0.1-0.1,0.1-0.2,0.2c-0.1,0.1-0.1,0.1-0.2,0.2l-0.2,0.2c0.6-0.2,1.1-0.2,1.4,0.2
		c0.2,0.2,0.3,0.5,0.3,0.8c0,0.3-0.2,0.6-0.5,0.9L75.3,183z"/>
	<path class="st1" d="M77.9,185.1c0,0,0.1-0.1,0.1-0.1c0,0,0.1-0.1,0.1-0.2c0,0,0.1-0.1,0.1-0.2c-0.3,0.1-0.5,0.1-0.7,0.1
		c-0.2,0-0.3-0.1-0.5-0.2c-0.3-0.3-0.5-0.6-0.4-1.1c0-0.4,0.3-0.9,0.7-1.5c0.4-0.6,0.9-0.9,1.3-1.1c0.4-0.2,0.8-0.1,1.1,0.1
		c0.2,0.1,0.3,0.3,0.4,0.5c0.1,0.2,0.1,0.4,0,0.7c0.1-0.1,0.1-0.2,0.1-0.2l0.2-0.3l1.4-1.8l1.2,1l-4,5.2L77.9,185.1z M78.6,183
		c-0.4,0.5-0.4,0.8-0.2,0.9c0.2,0.1,0.5,0,0.8-0.5c0.3-0.5,0.4-0.7,0.2-0.9C79.3,182.4,79,182.5,78.6,183z"/>
	<path class="st1" d="M82.3,183.1l1.4,0.8l-1.2,2.1c-0.1,0.2-0.2,0.4-0.2,0.5c0,0.1,0.1,0.2,0.2,0.2c0.1,0.1,0.2,0.1,0.3,0
		c0.1-0.1,0.2-0.2,0.3-0.4l1.2-2.1l1.4,0.8l-1.3,2.2c-0.1,0.1-0.2,0.3-0.3,0.4c-0.1,0.1-0.2,0.2-0.3,0.3s-0.2,0.1-0.4,0.2
		c-0.1,0-0.3,0.1-0.4,0.1c-0.4,0-0.8-0.1-1.2-0.3c-0.4-0.2-0.7-0.5-0.9-0.8c-0.1-0.1-0.1-0.3-0.2-0.4c0-0.1,0-0.3,0-0.4
		c0-0.1,0-0.3,0.1-0.4c0-0.1,0.1-0.3,0.2-0.4L82.3,183.1z"/>
	<path class="st1" d="M84.5,188.8l1-0.9c0.1,0.4,0.3,0.6,0.6,0.7c0.2,0.1,0.3,0.1,0.4-0.1c0-0.1,0-0.3-0.2-0.5
		c-0.6-0.5-0.8-1.1-0.5-1.6c0.2-0.4,0.4-0.6,0.9-0.8c0.4-0.1,0.8-0.1,1.3,0.1c0.4,0.2,0.7,0.4,1,0.8l-0.9,0.8
		c-0.1-0.3-0.3-0.5-0.4-0.6c-0.2-0.1-0.3,0-0.3,0.1c-0.1,0.1,0,0.3,0.3,0.6c0.3,0.3,0.5,0.5,0.5,0.8c0.1,0.2,0,0.5-0.1,0.7
		c-0.2,0.4-0.5,0.7-0.9,0.8s-0.8,0.1-1.3-0.1c-0.2-0.1-0.4-0.2-0.6-0.4c-0.1-0.1-0.2-0.2-0.3-0.3C84.7,189,84.6,188.9,84.5,188.8z"
		/>
	<path class="st1" d="M89.9,191.2l-1.5-0.5l0.9-2.8l-0.4-0.1l0.4-1.2l0.4,0.1l0.4-1.2l1.5,0.5l-0.4,1.2l0.5,0.2l-0.4,1.2l-0.5-0.2
		L89.9,191.2z"/>
	<path class="st1" d="M92.6,191.8l-1.5-0.3l0.9-4.1l1.5,0.3l-0.3,0.8c0.4-0.6,0.8-0.8,1.3-0.7l-0.4,1.7c-0.1-0.1-0.3-0.2-0.4-0.2
		c-0.2,0-0.4,0-0.5,0.1c-0.1,0.1-0.2,0.3-0.3,0.6L92.6,191.8z"/>
	<path class="st1" d="M96,192.4l-1.6-0.2L95,188l1.6,0.2L96,192.4z M96.9,186.9c0,0.2-0.2,0.4-0.4,0.6c-0.2,0.2-0.4,0.2-0.7,0.2
		c-0.3,0-0.5-0.2-0.6-0.4c-0.2-0.2-0.2-0.4-0.2-0.7c0-0.2,0.2-0.5,0.3-0.6c0.2-0.2,0.4-0.2,0.7-0.2c0.3,0,0.5,0.2,0.6,0.4
		C96.8,186.4,96.9,186.7,96.9,186.9z"/>
	<path class="st1" d="M100.8,192.7l-1.6-0.1c0-0.1,0-0.3,0-0.4c0-0.1,0-0.2,0-0.3c-0.3,0.5-0.7,0.8-1.1,0.8c-0.4,0-0.7-0.2-0.9-0.6
		c-0.2-0.4-0.3-0.9-0.3-1.6c0-0.7,0.2-1.2,0.4-1.6c0.2-0.4,0.6-0.6,1-0.6c0.4,0,0.7,0.3,1,0.8c0-0.1,0-0.1,0-0.1s0-0.1,0-0.1l0-0.2
		l0-0.2l1.6,0.1L100.8,192.7z M99.3,190.4c0-0.2,0-0.3,0-0.4c0-0.1,0-0.2,0-0.3c0-0.1-0.1-0.1-0.1-0.2s-0.1,0-0.2,0
		c-0.3,0-0.4,0.3-0.4,1c0,0.5,0.1,0.8,0.3,0.8C99.2,191.4,99.3,191.1,99.3,190.4z"/>
	<path class="st1" d="M103.5,192.5l-1.6,0.1l-0.4-6.6l1.6-0.1L103.5,192.5z"/>
	<path class="st1" d="M109.3,191.5c0,0,0-0.1,0-0.2c0-0.1,0-0.1,0-0.2c0,0,0-0.1,0-0.2c-0.1,0.3-0.2,0.5-0.3,0.6
		c-0.1,0.1-0.3,0.2-0.5,0.3c-0.4,0.1-0.8,0-1.1-0.3c-0.3-0.3-0.6-0.8-0.7-1.5c-0.2-0.7-0.2-1.3,0-1.7c0.1-0.4,0.4-0.7,0.8-0.8
		c0.2-0.1,0.4,0,0.6,0c0.2,0.1,0.4,0.2,0.6,0.4c0-0.1-0.1-0.2-0.1-0.2l-0.1-0.4l-0.5-2.2l1.5-0.4l1.6,6.4L109.3,191.5z M108.1,189.6
		c0.1,0.6,0.3,0.8,0.6,0.8c0.2-0.1,0.3-0.4,0.1-1c-0.1-0.6-0.3-0.8-0.5-0.7C108.1,188.7,108,189,108.1,189.6z"/>
	<path class="st1" d="M113.5,188.6l1.4-0.5c0.1,0.5,0,0.9-0.2,1.3c-0.2,0.3-0.5,0.6-1,0.8c-0.6,0.2-1.1,0.2-1.5,0
		c-0.5-0.2-0.8-0.7-1-1.3c-0.2-0.6-0.3-1.2-0.1-1.7c0.2-0.5,0.6-0.9,1.1-1.1c0.5-0.2,1-0.2,1.5,0.1c0.5,0.3,0.8,0.7,1.1,1.3l0.1,0.3
		l-2.1,0.8c0.2,0.4,0.4,0.6,0.6,0.5C113.4,189,113.5,188.8,113.5,188.6z M113.1,187.5c0-0.1-0.1-0.1-0.1-0.2s-0.1-0.1-0.1-0.1
		c0,0-0.1-0.1-0.1-0.1c-0.1,0-0.1,0-0.1,0c-0.1,0-0.2,0.1-0.2,0.2s0,0.2,0,0.4L113.1,187.5z"/>
	<path class="st1" d="M116.1,188.7l-0.1-1.3c0.4,0.1,0.7,0.1,0.9,0c0.2-0.1,0.2-0.2,0.2-0.3c-0.1-0.1-0.2-0.1-0.5-0.1
		c-0.8,0.1-1.3-0.1-1.6-0.6c-0.2-0.4-0.2-0.7-0.1-1.1c0.2-0.4,0.5-0.7,0.9-0.9c0.4-0.2,0.8-0.3,1.3-0.3l0.1,1.3
		c-0.3-0.1-0.6-0.1-0.7,0c-0.1,0.1-0.2,0.2-0.1,0.3c0.1,0.1,0.3,0.2,0.6,0.1c0.4,0,0.7,0,0.9,0.1c0.2,0.1,0.4,0.3,0.5,0.5
		c0.2,0.4,0.2,0.8,0.1,1.2c-0.1,0.4-0.4,0.7-0.9,0.9c-0.2,0.1-0.4,0.2-0.7,0.3c-0.1,0-0.2,0-0.4,0.1
		C116.5,188.7,116.3,188.7,116.1,188.7z"/>
	<path class="st1" d="M118.2,181.5c0.1,0.2,0.2,0.4,0.1,0.7c-0.1,0.2-0.2,0.4-0.4,0.6c-0.2,0.1-0.4,0.2-0.7,0.1
		c-0.2-0.1-0.4-0.2-0.6-0.4c-0.1-0.2-0.2-0.4-0.1-0.7c0.1-0.2,0.2-0.4,0.4-0.6c0.2-0.1,0.4-0.2,0.7-0.1
		C117.9,181.1,118,181.2,118.2,181.5z M121.1,186.2l-1.3,0.9l-2.3-3.5l1.3-0.9L121.1,186.2z"/>
	<path class="st1" d="M122.3,179.9l2.7,3.4c0.2,0.3,0.4,0.5,0.4,0.8c0.1,0.2,0.1,0.5,0,0.7c-0.1,0.4-0.4,0.8-0.8,1.1
		c-0.4,0.4-0.9,0.5-1.3,0.5s-0.8-0.2-1.2-0.5l1.2-1c0.2,0.2,0.3,0.2,0.5,0.1c0.1-0.1,0.1-0.2,0.1-0.3c0-0.1-0.1-0.2-0.2-0.4
		l-0.4-0.5c0,0.5-0.1,0.8-0.4,1c-0.3,0.3-0.7,0.3-1.1,0.2c-0.4-0.2-0.9-0.5-1.3-1c-0.4-0.5-0.6-1-0.7-1.5c-0.1-0.5,0.1-0.8,0.4-1.1
		c0.1-0.1,0.3-0.2,0.5-0.2c0.2,0,0.4,0,0.7,0.1l-0.4-0.4L122.3,179.9z M122.4,182.5c-0.4-0.5-0.7-0.6-0.8-0.5
		c-0.2,0.2-0.1,0.5,0.3,0.9c0.4,0.5,0.7,0.6,0.9,0.5C122.9,183.3,122.8,183,122.4,182.5z"/>
	<path class="st1" d="M128.4,179.7l-1.1,1.1l-1.6-1.5c-0.1-0.1-0.2-0.2-0.3-0.2s-0.2,0-0.2,0.1c-0.2,0.2-0.1,0.4,0.2,0.7l1.5,1.5
		l-1.1,1.1l-3.1-2.9l1.1-1.1c0.1,0.1,0.1,0.1,0.2,0.2s0.1,0.1,0.2,0.2l0.2,0.2c-0.3-0.6-0.2-1.1,0.1-1.4c0.2-0.2,0.5-0.3,0.8-0.3
		c0.3,0,0.6,0.2,1,0.5L128.4,179.7z"/>
</g>
<g>
	
		<linearGradient id="SVGID_1_" gradientUnits="userSpaceOnUse" x1="97.9366" y1="63.97" x2="97.9366" y2="-26.21" gradientTransform="matrix(1 0 0 -1 -63.57 282.42)">
		<stop  offset="0" style="stop-color:#B6B6B7"/>
		<stop  offset="1" style="stop-color:#CECAC6"/>
	</linearGradient>
	<path class="st2" d="M28.8,224.2c0.1-3.1,2.7-5.5,5.7-5.4c3.1,0.1,5.5,2.7,5.4,5.7c-0.1,3-2.6,5.4-5.6,5.4c-3,0-5.5-2.4-5.6-5.4
		C28.8,224.4,28.8,224.3,28.8,224.2z M37.5,245.3v63.3h-6.2v-63.3H37.5z"/>
	<g>
		
			<linearGradient id="SVGID_00000119075771520508401180000011468535592848792250_" gradientUnits="userSpaceOnUse" x1="88.75" y1="-2.868652e-03" x2="88.75" y2="308.63">
			<stop  offset="0" style="stop-color:#798195"/>
			<stop  offset="1" style="stop-color:#CFCBC5"/>
		</linearGradient>
		<path style="fill:url(#SVGID_00000119075771520508401180000011468535592848792250_);" d="M170.8,40.2c-6.8,0-11.6,4.2-14,9.6v-8.2
			h-4.2c-2.1-9.7-6.8-18.4-13.4-25.3c0,0-0.1-0.1-0.1-0.1c-0.5-0.5-0.9-1-1.4-1.4c-0.1-0.1-0.1-0.1-0.2-0.2c-0.5-0.5-1-0.9-1.4-1.3
			c-0.1-0.1-0.1-0.1-0.2-0.2c-2.1-1.8-4.3-3.5-6.7-5c-0.1-0.1-0.2-0.2-0.4-0.2c-0.5-0.3-1-0.6-1.4-0.8c-0.2-0.1-0.4-0.2-0.6-0.4
			c-0.5-0.3-0.9-0.5-1.4-0.7c-0.2-0.1-0.5-0.3-0.7-0.4c-0.5-0.2-0.9-0.4-1.4-0.7c-0.3-0.1-0.5-0.2-0.8-0.4c-0.5-0.2-0.9-0.4-1.4-0.6
			c-0.3-0.1-0.5-0.2-0.8-0.3c-0.5-0.2-1-0.4-1.5-0.6c0,0,0,0,0,0c-1.2-0.4-2.3-0.8-3.5-1.1c-0.3-0.1-0.6-0.2-1-0.3
			c-0.4-0.1-0.9-0.2-1.4-0.3c-0.4-0.1-0.7-0.2-1.1-0.2c-0.4-0.1-0.9-0.2-1.3-0.3c-0.4-0.1-0.8-0.1-1.2-0.2c-0.4-0.1-0.9-0.1-1.3-0.2
			c-0.4-0.1-0.8-0.1-1.2-0.1c-0.4-0.1-0.9-0.1-1.3-0.1c-0.4,0-0.9-0.1-1.3-0.1c-0.4,0-0.9-0.1-1.3-0.1c-0.5,0-1.1,0-1.6,0
			c-0.3,0-0.6,0-0.9,0c-0.2,0-0.3,0-0.5,0c-8,0-15.8,1.8-22.8,5.1c-0.1,0.1-0.2,0.1-0.3,0.2c-0.6,0.3-1.2,0.6-1.8,0.9
			c-0.3,0.2-0.7,0.4-1,0.5c-0.4,0.2-0.9,0.5-1.3,0.8c-0.6,0.3-1.1,0.7-1.6,1c-0.2,0.1-0.5,0.3-0.7,0.4c-0.8,0.6-1.7,1.1-2.5,1.7
			c0,0,0,0-0.1,0.1c-0.8,0.6-1.5,1.2-2.3,1.8c-0.1,0.1-0.3,0.3-0.4,0.4c-0.6,0.5-1.2,1.1-1.8,1.6c-0.2,0.2-0.3,0.3-0.5,0.5
			c-0.6,0.5-1.1,1.1-1.6,1.7c-0.2,0.2-0.3,0.4-0.5,0.5c-0.6,0.6-1.2,1.3-1.7,2c-0.4,0.5-0.8,1.1-1.3,1.6c-0.2,0.2-0.3,0.4-0.5,0.6
			c-0.2,0.2-0.3,0.4-0.5,0.6C53.7,8.5,41.6,1.4,26.9,1.4h-20v137.2H0v5.9h6.8v164.1h6.8V144.6h17.6V202h0v0h6.2v-57.4h9.9
			c0,0,0,0,0,0h5.9v-5.9h-4.5H37.5v-28.9c0-11.4,3.4-15.3,7.5-16.5c1.1-0.3,2.3-0.4,3.5-0.4c0.9,0,1.7,0,2.5,0.2
			c0.8,0.1,1.6,0.3,2.3,0.6v0h0v-5.7h0v0c-0.6-0.2-1.2-0.4-1.8-0.5c-0.3-0.1-0.5-0.1-0.8-0.2c0,0-0.1,0-0.1,0
			c-0.4-0.1-0.8-0.1-1.3-0.2c0,0,0,0-0.1,0c-0.3,0-0.7,0-1.1-0.1c-0.1,0-0.2,0-0.2,0c-4.9,0-10.5,1.6-13.8,7.8
			c-1.7,3.2-2.8,7.7-2.8,13.8v0v30.1h-7.1H13.7V55.7H27c7.8,0,14.5-1.9,19.6-5.5c-0.1,1-0.1,2.1-0.1,3.2c0,0.3,0,0.6,0,0.9
			c0,7.9,1.9,15.4,5.1,22.2c0,0.1,0.1,0.2,0.1,0.2c0.3,0.6,0.6,1.1,0.9,1.7c0.1,0.2,0.2,0.5,0.4,0.7c0.2,0.3,0.3,0.6,0.5,0.9
			c9.1,16,26.3,26.6,46.7,26.6c6.2,0,12.1-1,17.6-2.8c0,0,0,0,0,0c0.3-0.1,0.7-0.2,1-0.4c0.1,0,0.1-0.1,0.2-0.1
			c5.7-2,10.9-5,15.5-8.7c0,0,0.1-0.1,0.1-0.1c0.6-0.5,1.2-1,1.8-1.5c0.1-0.1,0.1-0.1,0.2-0.2c0.6-0.5,1.1-1,1.7-1.6
			c0,0,0.1-0.1,0.1-0.1c2.2-2.2,4.3-4.7,6.1-7.3c0.1-0.2,0.3-0.4,0.4-0.6c0.3-0.5,0.7-1,1-1.6c0.1-0.2,0.3-0.5,0.4-0.7
			c0.3-0.5,0.6-1.1,0.9-1.6c0.1-0.2,0.3-0.5,0.4-0.7c0.3-0.6,0.6-1.1,0.9-1.7c0.1-0.2,0.2-0.4,0.3-0.6c0.3-0.6,0.6-1.2,0.8-1.9
			c0-0.1,0.1-0.2,0.1-0.3c0.3-0.7,0.5-1.3,0.8-2v32.9h6.2v-34c0-7.9,0.2-24.8,12.9-24.8c2.8,0,4,0.8,4.7,1.2l3.1-5.6
			C175.4,40.7,173.2,40.2,170.8,40.2z M27.3,49.6H13.7v-42h12.6c15,0,23.7,8.1,23.7,21C50,41.5,40.8,49.6,27.3,49.6z M53.7,53.4
			c0-26.5,19.9-47.2,46.6-47.2c11.7,0,22,3.9,30,10.6c10.2,8.6,16.5,21.6,16.5,36.6c0,26.4-19.9,47-46.6,47
			C73.5,100.4,53.7,79.8,53.7,53.4z"/>
		
			<linearGradient id="SVGID_00000085217647700538860380000015702228381172363170_" gradientUnits="userSpaceOnUse" x1="100.2091" y1="202.0143" x2="100.2091" y2="308.66">
			<stop  offset="0" style="stop-color:#B1B1B4"/>
			<stop  offset="1" style="stop-color:#CFCBC5"/>
		</linearGradient>
		<path style="fill:url(#SVGID_00000085217647700538860380000015702228381172363170_);" d="M144.7,225.1c-0.3-0.5-0.6-0.9-1-1.4
			c-0.2-0.3-0.4-0.5-0.6-0.8c-0.2-0.3-0.5-0.6-0.7-0.9c-0.3-0.3-0.5-0.7-0.8-1c0,0-0.1-0.1-0.1-0.1c-1.3-1.5-2.6-2.9-4.1-4.3
			c0,0-0.1-0.1-0.1-0.1c-0.5-0.5-1-0.9-1.5-1.3c0,0,0,0,0,0c-5.2-4.5-11.3-8.1-18.1-10.3c0.3-0.1,0.5-0.2,0.8-0.3
			c-0.3,0.1-0.6,0.2-0.9,0.3c-5.5-1.8-11.4-2.8-17.5-2.8c-6.2,0-12.1,1-17.6,2.8c0,0,0,0,0,0c0,0-0.1,0-0.1,0
			c-0.6,0.2-1.2,0.4-1.9,0.7c-0.1,0-0.2,0.1-0.2,0.1c-2.5,1-5,2.1-7.3,3.5c-0.1,0-0.2,0.1-0.2,0.1c-0.6,0.3-1.1,0.7-1.7,1
			c0,0-0.1,0.1-0.1,0.1c-5.8,3.6-10.8,8.3-14.7,13.9c-0.1,0.1-0.2,0.2-0.2,0.3c-0.3,0.5-0.7,0.9-1,1.4c-0.1,0.2-0.3,0.4-0.4,0.6
			c-0.3,0.5-0.6,1-0.9,1.5c-0.3,0.6-0.7,1.1-1,1.7c-0.1,0.1-0.1,0.3-0.2,0.4c-0.3,0.6-0.7,1.3-1,1.9c0,0,0,0.1-0.1,0.1
			c-3,6.3-4.8,13.2-5.1,20.4c0,0,0,0.1,0,0.1c0,0.6,0,1.2,0,1.7c0,0.3,0,0.7,0,1c0,18.6,9.1,34.8,23.3,44.3c8.6,5.7,19,9,30.4,9
			c30.3,0,53.7-23.4,53.7-53.2c0.1-10.9-3.2-21.2-8.9-29.9C144.9,225.4,144.8,225.3,144.7,225.1z M146.8,255.4
			c0,18.1-9.4,33.6-23.9,41.4c-6.6,3.6-14.3,5.6-22.6,5.6c-26.7,0-46.6-20.6-46.6-47c0-26.5,19.9-47.2,46.6-47.2
			c7.5,0,14.5,1.6,20.6,4.6C136.5,220.3,146.8,236.3,146.8,255.4z"/>
	</g>
</g>
<g>
	
		<linearGradient id="SVGID_00000168089456315344384060000002487999790481390471_" gradientUnits="userSpaceOnUse" x1="180.6966" y1="146.72" x2="180.6966" y2="135.23" gradientTransform="matrix(1 0 0 -1 -63.57 282.42)">
		<stop  offset="0" style="stop-color:#9EA2AA"/>
		<stop  offset="1" style="stop-color:#A2A4AC"/>
	</linearGradient>
	<path style="fill:url(#SVGID_00000168089456315344384060000002487999790481390471_);" d="M111.5,141.4c0.1-3.1,2.7-5.5,5.7-5.4
		c3.1,0.1,5.5,2.7,5.4,5.7c-0.1,3-2.6,5.4-5.6,5.4c-3,0-5.5-2.4-5.6-5.4C111.5,141.6,111.5,141.5,111.5,141.4z"/>
	
		<linearGradient id="SVGID_00000001660434403153393240000009414716369757740479_" gradientUnits="userSpaceOnUse" x1="146.8766" y1="146.72" x2="146.8766" y2="135.23" gradientTransform="matrix(1 0 0 -1 -63.57 282.42)">
		<stop  offset="0" style="stop-color:#9EA2AA"/>
		<stop  offset="1" style="stop-color:#A2A4AC"/>
	</linearGradient>
	<path style="fill:url(#SVGID_00000001660434403153393240000009414716369757740479_);" d="M77.7,141.4c0.1-3.1,2.7-5.5,5.7-5.4
		c3.1,0.1,5.5,2.7,5.4,5.7c-0.1,3-2.6,5.4-5.6,5.4c-3,0-5.5-2.4-5.6-5.4C77.7,141.6,77.7,141.5,77.7,141.4z"/>
	<path class="st7" d="M67.5,157.7l0.2,1.6l-2.4,0.3c-0.2,0-0.3,0.1-0.5,0.1c-0.1,0.1-0.1,0.2-0.1,0.3c0,0.1,0.1,0.2,0.2,0.2
		c0.2,0,0.3,0,0.5,0l2.4-0.3l0.2,1.6l-2.6,0.4c-0.2,0-0.3,0-0.5,0c-0.1,0-0.3,0-0.4-0.1c-0.1,0-0.2-0.1-0.3-0.2
		c-0.1-0.1-0.2-0.2-0.3-0.3c-0.3-0.3-0.4-0.7-0.5-1.1c-0.1-0.4,0-0.8,0.1-1.2c0.1-0.1,0.1-0.3,0.2-0.4c0.1-0.1,0.2-0.2,0.3-0.3
		c0.1-0.1,0.2-0.1,0.4-0.2c0.1-0.1,0.3-0.1,0.4-0.1L67.5,157.7z"/>
	<path class="st7" d="M64.4,162.9l1.3,0.2c-0.2,0.2-0.3,0.6-0.2,0.9c0.1,0.2,0.1,0.3,0.3,0.2s0.2-0.2,0.2-0.5
		c0.1-0.8,0.4-1.2,0.9-1.4c0.4-0.1,0.8,0,1.1,0.2c0.4,0.3,0.6,0.7,0.7,1.1c0.1,0.4,0.1,0.9,0,1.3l-1.2-0.2c0.2-0.2,0.2-0.5,0.2-0.7
		c0-0.2-0.1-0.2-0.2-0.2s-0.2,0.2-0.3,0.6c0,0.3-0.1,0.6-0.3,0.9c-0.2,0.2-0.4,0.3-0.6,0.4c-0.4,0.1-0.8,0-1.1-0.2
		c-0.4-0.3-0.6-0.6-0.7-1.1c-0.1-0.2-0.1-0.5-0.1-0.7c0-0.1,0-0.3,0-0.4C64.3,163.3,64.4,163.1,64.4,162.9z"/>
	<path class="st7" d="M67.3,168.5l0.5,1.4c-0.4,0.1-0.9,0-1.3-0.2c-0.4-0.2-0.7-0.6-0.8-1c-0.2-0.5-0.2-1,0-1.5
		c0.3-0.5,0.7-0.9,1.3-1.1c0.5-0.2,1.2-0.3,1.7-0.1c0.5,0.2,0.9,0.6,1.1,1.1c0.2,0.5,0.2,1-0.1,1.5c-0.3,0.5-0.8,0.9-1.3,1.1
		l-0.3,0.1l-0.9-2.1c-0.4,0.2-0.6,0.4-0.5,0.6C67,168.5,67.1,168.5,67.3,168.5z M68.4,168.1c0.1,0,0.1-0.1,0.2-0.1
		c0,0,0.1-0.1,0.1-0.1c0,0,0-0.1,0.1-0.1c0,0,0-0.1,0-0.1c0-0.1-0.1-0.2-0.2-0.2c-0.1,0-0.3,0-0.4,0.1L68.4,168.1z"/>
	<path class="st7" d="M67.8,172.8l-0.7-1.4l3.7-2l0.7,1.4l-0.8,0.3c0.5-0.1,1.1,0.1,1.4,0.6l-1.6,0.8c0-0.2,0-0.3-0.1-0.4
		c-0.1-0.2-0.2-0.3-0.4-0.3c-0.2,0-0.5,0-0.7,0.2L67.8,172.8z"/>
	<path class="st7" d="M72.7,177.5l0.9,1.2c-0.4,0.2-0.8,0.3-1.3,0.2c-0.4-0.1-0.8-0.4-1.1-0.7c-0.4-0.4-0.5-0.9-0.4-1.5
		c0.1-0.6,0.4-1.1,0.9-1.4c0.4-0.4,1-0.6,1.6-0.6c0.5,0,1.1,0.3,1.4,0.7c0.4,0.4,0.5,0.9,0.4,1.5c-0.1,0.6-0.5,1.1-1,1.4l-0.2,0.2
		l-1.4-1.8c-0.3,0.3-0.4,0.5-0.3,0.7C72.3,177.5,72.5,177.6,72.7,177.5C72.7,177.5,72.7,177.5,72.7,177.5z M73.7,176.8
		c0.1,0,0.1-0.1,0.1-0.1c0-0.1,0.1-0.1,0.1-0.2c0-0.1,0-0.1,0-0.2c0-0.1,0-0.1-0.1-0.1c-0.1-0.1-0.2-0.1-0.3-0.1
		c-0.1,0-0.3,0.1-0.4,0.2L73.7,176.8z"/>
	<path class="st7" d="M76,183.1l-1.3-1.3l0.2-0.4l0.1-0.1l0.1-0.1c0-0.1,0-0.1,0.1-0.1l0.1-0.2l-0.3,0.1l-0.3,0.1l-0.4,0.2l-1.3-1.2
		l2.4-0.7l0.6-2.3l1.3,1.2l-0.2,0.5l-0.1,0.2l-0.1,0.2l0.2-0.1l0.2-0.1l0.4-0.2l1.2,1.2l-2.3,0.6L76,183.1z"/>
	<path class="st7" d="M76.8,186.1l-1.3-0.9l3.6-4.9l1.3,0.9l-0.4,0.4c0.1-0.1,0.2-0.1,0.4-0.1c0.2-0.1,0.4-0.1,0.6,0
		c0.1,0,0.2,0.1,0.3,0.1c0.3,0.3,0.5,0.7,0.4,1.1c-0.1,0.6-0.3,1.1-0.6,1.5c-0.3,0.5-0.7,0.8-1.2,1.1c-0.4,0.2-0.8,0.1-1.1-0.1
		c-0.3-0.3-0.5-0.7-0.4-1.1c-0.1,0.1-0.1,0.2-0.2,0.3c-0.1,0.1-0.1,0.2-0.2,0.3L76.8,186.1z M79.8,183.2c0.1-0.2,0.2-0.4,0.3-0.6
		c0-0.1,0-0.3-0.1-0.3c-0.2-0.1-0.5,0-0.8,0.5s-0.4,0.8-0.3,0.9c0.1,0.1,0.3,0.1,0.4,0C79.5,183.6,79.7,183.4,79.8,183.2L79.8,183.2
		z"/>
	<path class="st7" d="M83.3,186.3l1.3,0.8c-0.3,0.3-0.7,0.6-1.1,0.7c-0.4,0.1-0.9,0-1.3-0.3c-0.5-0.2-0.9-0.7-1-1.2
		c-0.1-0.6,0-1.1,0.3-1.6c0.3-0.5,0.7-0.9,1.3-1.2c0.5-0.2,1.1-0.1,1.6,0.1c0.5,0.2,0.8,0.7,0.9,1.2c0.1,0.6,0,1.2-0.3,1.7l-0.1,0.2
		l-2-1.1c-0.2,0.4-0.2,0.6,0,0.7C83,186.5,83.2,186.5,83.3,186.3C83.3,186.3,83.3,186.3,83.3,186.3z M83.9,185.3
		c0-0.1,0.1-0.1,0.1-0.2c0-0.1,0-0.1,0-0.2c0-0.1,0-0.1-0.1-0.2c0,0-0.1-0.1-0.1-0.1c-0.1-0.1-0.2-0.1-0.3,0
		c-0.1,0.1-0.2,0.2-0.3,0.3L83.9,185.3z"/>
	<path class="st7" d="M86.4,189.3l-1.4-0.6l1.6-3.9l1.4,0.6l-0.4,0.7c0.3-0.4,0.9-0.6,1.4-0.4l-0.7,1.6c-0.1-0.1-0.2-0.2-0.4-0.3
		c-0.2-0.1-0.4-0.1-0.5,0c-0.2,0.1-0.3,0.3-0.4,0.6L86.4,189.3z"/>
	<path class="st7" d="M89.6,190.4l-1.5-0.5l1.3-4l1.5,0.5L89.6,190.4z M91.4,185.2c-0.1,0.2-0.2,0.4-0.4,0.5
		c-0.2,0.1-0.5,0.1-0.7,0.1c-0.2-0.1-0.4-0.2-0.5-0.5c-0.1-0.2-0.1-0.5,0-0.7c0.2-0.5,0.7-0.7,1.2-0.6S91.6,184.7,91.4,185.2
		L91.4,185.2z"/>
	<path class="st7" d="M93,189.8l1.5,0.4c-0.2,0.4-0.5,0.8-0.9,1c-0.4,0.2-0.9,0.2-1.3,0.1c-0.5-0.1-1-0.4-1.3-0.9
		c-0.3-0.5-0.3-1.1-0.2-1.6c0.1-0.6,0.4-1.1,0.9-1.5c0.4-0.3,1-0.4,1.5-0.3c0.5,0.1,1,0.4,1.2,0.9c0.3,0.5,0.3,1.1,0.2,1.7l-0.1,0.3
		l-2.2-0.5c-0.1,0.4,0,0.7,0.2,0.7C92.8,190.1,93,190,93,189.8z M93.3,188.7c0-0.1,0-0.1,0-0.2c0-0.1,0-0.1,0-0.2
		c0,0-0.1-0.1-0.1-0.1c0,0-0.1-0.1-0.1-0.1c-0.1,0-0.2,0-0.3,0.1c-0.1,0.1-0.2,0.2-0.2,0.4L93.3,188.7z"/>
	<path class="st7" d="M99.1,192l-1.6-0.1l0.2-2.2c0-0.1,0-0.3,0-0.4c0-0.1-0.1-0.1-0.2-0.1c-0.2,0-0.3,0.2-0.4,0.6l-0.2,2.1
		l-1.6-0.1l0.3-4.2l1.6,0.1c0,0.1,0,0.2,0,0.3s0,0.2,0,0.2v0.3c0.2-0.5,0.7-0.8,1.2-0.8c0.3,0,0.6,0.2,0.8,0.4
		c0.2,0.3,0.2,0.7,0.2,1.1L99.1,192z"/>
	<path class="st7" d="M102.3,190.6v1.4h-0.2h-0.2c-0.4,0-0.8-0.1-1.2-0.4c-0.2-0.2-0.4-0.5-0.5-0.8c-0.1-0.3-0.2-0.7-0.2-1
		c0-0.6,0.2-1.1,0.5-1.6c0.3-0.4,0.9-0.7,1.4-0.7h0.3v1.4c-0.4,0-0.7,0.3-0.7,0.7c0,0,0,0.1,0,0.1c0,0.2,0.1,0.4,0.2,0.6
		c0.1,0.1,0.3,0.2,0.4,0.2L102.3,190.6L102.3,190.6z"/>
	<path class="st7" d="M105.2,190.2l1.5-0.2c0,0.4-0.2,0.9-0.5,1.2c-0.3,0.3-0.7,0.5-1.2,0.5c-0.5,0.1-1.1,0-1.5-0.4
		c-0.4-0.4-0.7-0.9-0.7-1.5c-0.1-0.6,0-1.2,0.3-1.7c0.3-0.5,0.8-0.8,1.3-0.8c0.5-0.1,1.1,0.1,1.4,0.4c0.4,0.4,0.7,1,0.7,1.6v0.3
		l-2.3,0.3c0.1,0.4,0.2,0.6,0.4,0.6C105.1,190.6,105.2,190.4,105.2,190.2z M105.1,189c0-0.1,0-0.1-0.1-0.2c0-0.1,0-0.1-0.1-0.2
		c0,0-0.1-0.1-0.1-0.1c0,0-0.1,0-0.1,0c-0.1,0-0.2,0.1-0.2,0.2c-0.1,0.1-0.1,0.3-0.1,0.4L105.1,189z"/>
	<path class="st7" d="M115.6,188.8l-1.6,0.6l-0.3-0.2c-0.3,0.4-0.7,0.7-1.1,0.9c-0.5,0.2-1,0.2-1.5,0c-0.5-0.2-0.8-0.6-1-1.1
		c-0.2-0.6-0.1-1.4,0.4-1.9c-0.4-0.2-0.7-0.5-0.9-0.9c-0.2-0.4-0.1-0.9,0.1-1.2c0.2-0.4,0.5-0.7,0.9-0.9c0.4-0.2,0.9-0.2,1.4,0
		c0.4,0.1,0.7,0.5,0.9,0.9c0.2,0.6,0,1.3-0.4,1.8l0.8,0.5c0-0.1,0.1-0.2,0.1-0.4s0.1-0.3,0.2-0.5l1.2,0.8l-0.2,0.4
		c-0.1,0.1-0.1,0.3-0.2,0.4L115.6,188.8z M111.5,186c0.1-0.2,0.2-0.4,0.1-0.7c0-0.1-0.1-0.2-0.2-0.2c-0.1,0-0.2,0-0.2,0
		c0,0-0.1,0-0.1,0.1c0,0-0.1,0.1-0.1,0.1c0,0,0,0.1,0,0.1c0,0,0,0.1,0,0.1C111.2,185.8,111.3,185.9,111.5,186z M111.7,187.8
		c-0.1,0.1-0.2,0.3-0.1,0.5c0,0.1,0.1,0.2,0.3,0.3c0.1,0.1,0.2,0.1,0.4,0c0.1-0.1,0.3-0.2,0.3-0.3L111.7,187.8z"/>
	<path class="st7" d="M117.3,181.4c0.3,0.4,0.1,1-0.3,1.2c0,0,0,0,0,0c-0.2,0.1-0.5,0.2-0.7,0.1c-0.2-0.1-0.4-0.2-0.6-0.4
		c-0.3-0.4-0.1-1,0.3-1.3c0.2-0.1,0.5-0.2,0.7-0.1C117,181.1,117.2,181.2,117.3,181.4z M120.1,186.2l-1.3,0.8l-2.2-3.6l1.3-0.8
		L120.1,186.2z"/>
	<path class="st7" d="M124,183.4l-1.2,0.9l-1.3-1.8c-0.1-0.1-0.2-0.2-0.3-0.3c-0.1,0-0.2,0-0.2,0c-0.2,0.1-0.1,0.4,0.1,0.7l1.3,1.7
		l-1.2,0.9l-2.6-3.3l1.2-0.9l0.2,0.2l0.1,0.2l0.1,0.2c-0.2-0.5-0.1-1,0.4-1.4c0.2-0.2,0.6-0.3,0.9-0.2c0.4,0.1,0.7,0.4,0.9,0.7
		L124,183.4z"/>
	<path class="st7" d="M126.1,181.4l-1.1,1.1l-2-2.2l-0.3,0.3l-0.9-0.9l0.3-0.3l-0.9-0.9l1.1-1.1l0.9,0.9l0.4-0.4l0.9,0.9l-0.4,0.4
		L126.1,181.4z"/>
	<path class="st7" d="M127.4,177.9l1-1.1c0.3,0.3,0.4,0.8,0.4,1.2c0,0.4-0.2,0.9-0.5,1.2c-0.3,0.4-0.8,0.7-1.4,0.7
		c-0.6,0-1.1-0.2-1.5-0.6c-0.5-0.4-0.8-0.9-0.9-1.5c-0.1-0.5,0.1-1.1,0.4-1.5c0.3-0.4,0.8-0.7,1.4-0.6c0.6,0,1.1,0.3,1.6,0.7
		l0.2,0.2l-1.5,1.7c0.3,0.3,0.6,0.3,0.7,0.1C127.5,178.3,127.5,178.1,127.4,177.9z M126.5,177.1c-0.1,0-0.1-0.1-0.2-0.1
		c-0.1,0-0.1,0-0.2-0.1c-0.1,0-0.1,0-0.2,0c0,0-0.1,0-0.1,0.1c-0.1,0.1-0.1,0.2-0.1,0.3c0,0.1,0.1,0.2,0.2,0.3L126.5,177.1z"/>
	<path class="st7" d="M131,175.5l-0.9,1.3l-3.5-2.4l0.9-1.3l0.6,0.5c-0.4-0.4-0.4-1-0.1-1.5l1.4,1c-0.1,0.1-0.3,0.2-0.4,0.3
		c-0.1,0.2-0.1,0.3-0.1,0.5c0.1,0.2,0.3,0.4,0.5,0.5L131,175.5z"/>
	<path class="st7" d="M132.9,172.3l-0.8,1.4l-2.6-1.4l-0.2,0.4l-1.1-0.6l0.2-0.4l-0.7-0.4c-0.4-0.2-0.7-0.5-0.9-0.9
		c-0.1-0.4-0.1-0.8,0.1-1.1c0.1-0.2,0.3-0.4,0.4-0.6l1.3,0.7c-0.1,0-0.2,0.1-0.3,0.2c-0.1,0.1,0,0.3,0.3,0.4l0.5,0.3l0.3-0.5
		l1.1,0.6l-0.3,0.5L132.9,172.3z"/>
	<path class="st7" d="M135.1,167.6l-0.6,1.4l-0.4-0.2l-0.3-0.1c0.4,0.3,0.5,0.9,0.3,1.3c-0.2,0.4-0.5,0.6-0.9,0.6
		c-0.6,0-1.1-0.1-1.6-0.3c-0.5-0.2-1-0.5-1.3-0.9c-0.3-0.3-0.3-0.7-0.2-1.1c0.2-0.4,0.6-0.7,1.1-0.6h-0.1H131l-0.2-0.1l-0.2-0.1
		l0.6-1.5L135.1,167.6z M132.5,168.2c-0.1-0.1-0.3-0.1-0.4-0.1c-0.1,0-0.2,0-0.3,0c-0.1,0-0.1,0-0.2,0c0,0-0.1,0.1-0.1,0.1
		c-0.1,0.2,0.2,0.5,0.8,0.8c0.5,0.2,0.7,0.2,0.8,0C133.3,168.7,133,168.4,132.5,168.2L132.5,168.2z"/>
	<path class="st7" d="M134.7,164l1.4,0.4c0,0.1,0,0.2-0.1,0.2c0,0.1,0,0.1,0,0.2c-0.1,0.4-0.4,0.8-0.7,1c-0.3,0.2-0.6,0.3-0.9,0.3
		c-0.3,0-0.7,0-1-0.1c-0.6-0.1-1-0.5-1.3-1c-0.3-0.5-0.4-1-0.2-1.5c0,0,0-0.1,0-0.1c0-0.1,0-0.1,0.1-0.2l1.3,0.4
		c-0.1,0.3,0.1,0.7,0.4,0.9c0,0,0.1,0,0.1,0c0.2,0.1,0.4,0.1,0.6,0C134.5,164.4,134.7,164.2,134.7,164L134.7,164
		C134.7,164,134.7,164,134.7,164z"/>
	<path class="st7" d="M135.2,161.1l0.3-1.5c0.4,0.2,0.8,0.4,1,0.8c0.2,0.4,0.2,0.9,0.1,1.3c-0.1,0.5-0.4,1-0.8,1.3
		c-0.5,0.3-1.1,0.4-1.6,0.2c-0.6-0.1-1.1-0.4-1.5-0.8c-0.4-0.4-0.5-1-0.4-1.5c0.1-0.5,0.4-1,0.9-1.2c0.5-0.3,1.1-0.4,1.7-0.2
		l0.3,0.1l-0.4,2.3c0.4,0.1,0.7,0,0.7-0.2C135.5,161.3,135.4,161.1,135.2,161.1z M134.1,160.8h-0.2c-0.1,0-0.1,0-0.2,0.1
		c-0.1,0-0.1,0-0.1,0.1c0,0-0.1,0.1-0.1,0.1c0,0.1,0,0.2,0.1,0.3c0.1,0.1,0.2,0.2,0.4,0.2L134.1,160.8z"/>
	<g>
		
			<linearGradient id="SVGID_00000170964159301752629090000017661047132459150992_" gradientUnits="userSpaceOnUse" x1="100.1993" y1="100.9976" x2="100.1993" y2="207.629">
			<stop  offset="0" style="stop-color:#9599A5"/>
			<stop  offset="1" style="stop-color:#B3B2B5"/>
		</linearGradient>
		<path style="fill:url(#SVGID_00000170964159301752629090000017661047132459150992_);" d="M153.9,154.4c0,29.8-23.4,53.2-53.7,53.2
			c-30.4,0-53.7-23.4-53.7-53.2S69.9,101,100.2,101S153.9,124.6,153.9,154.4z M146.8,154.4c0-26.5-19.9-47.2-46.6-47.2
			s-46.6,20.6-46.6,47.2c0,26.4,19.9,47,46.6,47S146.8,180.8,146.8,154.4z"/>
	</g>
</g>
</svg>
